# xmcd CD database file
#
# Track frame offsets:
#	150
#	23635
#	48435
#	71875
#	94990
#	117819
#	141457
#	164701
#	188224
#	211968
#	235965
#	260128
#
# Disc length: 3788 seconds
#
# Revision: 0
# Processed by: cddbd v1.5.1PL0 Copyright (c) Steve Scherf et al.
# Submitted via: CDex 1.51
#
DISCID=ba0eca0c
DTITLE=Kevin Kendal - Distant Horizons Vol 2 (Music for Reiki)
DYEAR=2004
DGENRE=New Age
TTITLE0=The Brook
TTITLE1=Dawn Chorus
TTITLE2=Journey's End
TTITLE3=Above the Clouds
TTITLE4=Ancient Hedgerows
TTITLE5=Melting Snow
TTITLE6=Ever Upwards
TTITLE7=The Mooring
TTITLE8=Scented Air
TTITLE9=Stillness
TTITLE10=Silver Frost
TTITLE11=The Realms Beyond
EXTD=YEAR: 2004
EXTT0=
EXTT1=
EXTT2=
EXTT3=
EXTT4=
EXTT5=
EXTT6=
EXTT7=
EXTT8=
EXTT9=
EXTT10=
EXTT11=
PLAYORDER=
